<?xml version="1.0" encoding="iso-8859-1"?>
<!-- Generator: Adobe Illustrator 16.0.0, SVG Export Plug-In . SVG Version: 6.00 Build 0)  -->
<!DOCTYPE svg PUBLIC "-//W3C//DTD SVG 1.1//EN" "http://www.w3.org/Graphics/SVG/1.1/DTD/svg11.dtd">
<svg version="1.1" id="Capa_1" xmlns="http://www.w3.org/2000/svg" xmlns:xlink="http://www.w3.org/1999/xlink" x="0px" y="0px"
	 width="611.988px" height="611.988px" viewBox="0 0 611.988 611.988" style="enable-background:new 0 0 611.988 611.988;"
	 xml:space="preserve">
<g>
	<path d="M121.669,344.342v183.843h368.662l-0.011-183.843H121.669z M90.241,245.506c-1.93-1.328-4.167-2.032-6.449-2.055H11.456
		C5.144,243.485,0.011,248.605,0,254.93v281.861c0.011,6.268,5.144,11.411,11.456,11.422h72.381
		c5.291-0.011,10.003-3.837,11.138-9.083c0.159-0.84,0.193-1.464,0.216-2.077l0.011-0.67l0.045-0.295V254.93
		C95.237,251.217,93.375,247.697,90.241,245.506z M33.097,574.646v12.069h29.032v-12.069H33.097z M545.908,217.053V85.995
		c-0.057-33.426-27.317-60.664-60.743-60.721h-358.33c-33.438,0.057-60.664,27.295-60.732,60.744v131.036h17.735
		c20.846,0.011,37.832,16.985,37.832,37.854v63.025H490.32V254.93c0.011-7.017,2.009-13.886,5.744-19.892
		c6.972-11.218,18.973-17.973,32.098-17.984H545.908z M549.859,586.715h29.032v-12.069h-29.032V586.715z M600.556,243.462h-72.394
		c-0.727,0-1.601,0.159-2.747,0.42c-3.361,0.863-6.233,3.304-7.664,6.449c-0.068,0.216-0.137,0.397-0.193,0.625
		c-0.567,1.533-0.806,2.804-0.817,4.019v281.816c0,0.636,0.068,1.295,0.25,2.078c1.146,5.507,5.858,9.333,11.195,9.344h72.381
		c6.177-0.011,11.399-5.233,11.422-11.433V254.93C611.978,248.605,606.856,243.485,600.556,243.462z"/>
</g>
<g>
</g>
<g>
</g>
<g>
</g>
<g>
</g>
<g>
</g>
<g>
</g>
<g>
</g>
<g>
</g>
<g>
</g>
<g>
</g>
<g>
</g>
<g>
</g>
<g>
</g>
<g>
</g>
<g>
</g>
</svg>
