<?xml version="1.0" encoding="utf-8"?>
<!-- Generator: Adobe Illustrator 16.0.0, SVG Export Plug-In . SVG Version: 6.00 Build 0)  -->
<!DOCTYPE svg PUBLIC "-//W3C//DTD SVG 1.1//EN" "http://www.w3.org/Graphics/SVG/1.1/DTD/svg11.dtd">
<svg version="1.1" id="图层_1" xmlns="http://www.w3.org/2000/svg" xmlns:xlink="http://www.w3.org/1999/xlink" x="0px" y="0px"
	 width="400px" height="600px" viewBox="0 0 400 600" enable-background="new 0 0 400 600" xml:space="preserve">
<g id="seat-icon-1">
	<path fill="#888888" d="M34.941,153.096v14.718h30.119v-14.718H34.941L34.941,153.096z M32.373,145.183
		c-0.158-0.106-0.34-0.163-0.526-0.165h-5.911c-0.516,0.003-0.935,0.413-0.936,0.919v22.565c0.001,0.5,0.42,0.914,0.936,0.916h5.914
		c0.432-0.002,0.817-0.308,0.911-0.728c0.013-0.067,0.016-0.117,0.017-0.166l0.001-0.055l0.003-0.023v-22.51
		C32.782,145.641,32.629,145.357,32.373,145.183z M27.706,171.533v0.966h2.372v-0.966H27.706z M69.6,142.905v-10.493
		c-0.004-2.676-2.232-4.856-4.963-4.861H35.363c-2.732,0.005-4.956,2.186-4.962,4.863v10.491h1.449
		c1.703,0.001,3.092,1.36,3.092,3.03v5.046h30.118v-5.044c0-0.561,0.165-1.111,0.468-1.593c0.569-0.898,1.549-1.438,2.623-1.439
		H69.6L69.6,142.905z M69.924,172.5h2.372v-0.965h-2.372V172.5z M74.065,145.02h-5.914c-0.06,0-0.131,0.013-0.226,0.033
		c-0.274,0.068-0.509,0.265-0.626,0.516c-0.005,0.018-0.012,0.032-0.016,0.051c-0.047,0.123-0.067,0.225-0.067,0.321v22.563
		c0,0.052,0.005,0.104,0.022,0.167c0.092,0.439,0.478,0.747,0.915,0.747h5.913c0.504,0,0.931-0.418,0.934-0.915v-22.565
		C74.998,145.431,74.579,145.021,74.065,145.02z"/>
	<text transform="matrix(1.0205 0 0 1 42.9805 147.7324)" fill="#FFFFFF" font-family="'Arial-BoldMT'" font-size="23.5834">1</text>
</g>
<g id="seat-icon-2">
	<path fill="#888888" d="M134.941,153.096v14.718h30.12v-14.718H134.941L134.941,153.096z M132.373,145.183
		c-0.158-0.106-0.34-0.163-0.526-0.164h-5.91c-0.517,0.003-0.936,0.413-0.937,0.918v22.565c0.001,0.5,0.42,0.914,0.937,0.916h5.913
		c0.433-0.002,0.817-0.308,0.911-0.728c0.013-0.067,0.016-0.117,0.017-0.166l0.001-0.055l0.003-0.023v-22.51
		C132.782,145.641,132.629,145.357,132.373,145.183z M127.706,171.533v0.966h2.372v-0.966H127.706z M169.599,142.905v-10.493
		c-0.004-2.676-2.23-4.856-4.963-4.861h-29.272c-2.732,0.005-4.956,2.185-4.961,4.863v10.491h1.449
		c1.703,0.001,3.091,1.36,3.091,3.03v5.046h30.119v-5.044c0-0.562,0.165-1.111,0.468-1.593c0.568-0.897,1.549-1.438,2.623-1.439
		H169.599L169.599,142.905z M169.924,172.5h2.372v-0.965h-2.372V172.5z M174.064,145.02h-5.913c-0.061,0-0.131,0.013-0.225,0.034
		c-0.274,0.068-0.509,0.265-0.627,0.515c-0.006,0.019-0.012,0.032-0.016,0.051c-0.047,0.123-0.066,0.225-0.066,0.321v22.563
		c0,0.052,0.004,0.104,0.021,0.167c0.092,0.439,0.478,0.747,0.915,0.747h5.913c0.503,0,0.93-0.418,0.934-0.915v-22.565
		C174.998,145.431,174.579,145.021,174.064,145.02z"/>
	<text transform="matrix(1.0204 0 0 1 142.9805 147.7324)" fill="#FFFFFF" font-family="'Arial-BoldMT'" font-size="23.5834">2</text>
</g>
<g id="seat-icon-3">
	<path fill="#888888" d="M234.941,153.096v14.718h30.121v-14.718H234.941L234.941,153.096z M232.373,145.183
		c-0.158-0.106-0.34-0.163-0.525-0.164h-5.912c-0.516,0.003-0.934,0.413-0.936,0.918v22.565c0.002,0.5,0.42,0.914,0.936,0.916h5.914
		c0.432-0.002,0.818-0.308,0.91-0.728c0.014-0.067,0.016-0.117,0.018-0.166v-0.055l0.004-0.023v-22.51
		C232.783,145.641,232.631,145.357,232.373,145.183z M227.705,171.533v0.966h2.373v-0.966H227.705z M269.6,142.905v-10.493
		c-0.004-2.676-2.23-4.856-4.963-4.861h-29.273c-2.73,0.005-4.955,2.185-4.961,4.863v10.491h1.449c1.701,0.001,3.09,1.36,3.09,3.03
		v5.046h30.121v-5.044c0-0.562,0.164-1.111,0.467-1.593c0.568-0.897,1.549-1.438,2.623-1.439H269.6L269.6,142.905z M269.924,172.5
		h2.373v-0.965h-2.373V172.5z M274.064,145.02h-5.912c-0.061,0-0.131,0.013-0.225,0.034c-0.275,0.068-0.51,0.265-0.627,0.515
		c-0.006,0.019-0.012,0.032-0.016,0.051c-0.047,0.123-0.066,0.225-0.066,0.321v22.563c0,0.052,0.004,0.104,0.021,0.167
		c0.092,0.439,0.477,0.747,0.914,0.747h5.912c0.504,0,0.93-0.418,0.934-0.915v-22.565
		C274.998,145.431,274.58,145.021,274.064,145.02z"/>
	<text transform="matrix(1.0204 0 0 1 242.9805 147.7324)" fill="#FFFFFF" font-family="'Arial-BoldMT'" font-size="23.5834">3</text>
</g>
<g id="seat-icon-4">
	<path fill="#888888" d="M334.941,153.096v14.718h30.119v-14.718H334.941L334.941,153.096z M332.372,145.183
		c-0.157-0.106-0.339-0.163-0.525-0.164h-5.91c-0.518,0.003-0.937,0.413-0.937,0.918v22.565c0,0.5,0.419,0.914,0.937,0.916h5.912
		c0.433-0.002,0.816-0.308,0.911-0.728c0.014-0.067,0.016-0.117,0.018-0.166v-0.055l0.004-0.023v-22.51
		C332.781,145.641,332.628,145.357,332.372,145.183z M327.705,171.533v0.966h2.371v-0.966H327.705z M369.599,142.905v-10.493
		c-0.004-2.676-2.23-4.856-4.963-4.861h-29.273c-2.732,0.005-4.955,2.185-4.961,4.863v10.491h1.449
		c1.702,0.001,3.091,1.36,3.091,3.03v5.046h30.119v-5.044c0-0.562,0.165-1.111,0.468-1.593c0.568-0.897,1.55-1.438,2.623-1.439
		H369.599L369.599,142.905z M369.924,172.5h2.371v-0.965h-2.371V172.5z M374.063,145.02h-5.912c-0.061,0-0.132,0.013-0.226,0.034
		c-0.274,0.068-0.509,0.265-0.627,0.515c-0.006,0.019-0.012,0.032-0.016,0.051c-0.047,0.123-0.066,0.225-0.066,0.321v22.563
		c0,0.052,0.004,0.104,0.021,0.167c0.093,0.439,0.479,0.747,0.915,0.747h5.912c0.504,0,0.931-0.418,0.935-0.915v-22.565
		C374.998,145.431,374.579,145.021,374.063,145.02z"/>
	<text transform="matrix(1.0205 0 0 1 342.9805 147.7324)" fill="#FFFFFF" font-family="'Arial-BoldMT'" font-size="23.5834">4</text>
</g>
<g id="seat-icon-9">
	<path fill="#888888" d="M84.941,345.57v14.718h30.119V345.57H84.941L84.941,345.57z M82.373,337.657
		c-0.158-0.106-0.34-0.163-0.526-0.165h-5.911c-0.516,0.004-0.935,0.414-0.936,0.92v22.564c0.001,0.501,0.42,0.914,0.936,0.916
		h5.914c0.432-0.002,0.817-0.309,0.911-0.728c0.013-0.067,0.016-0.117,0.017-0.166l0.001-0.055l0.003-0.022v-22.51
		C82.782,338.115,82.629,337.832,82.373,337.657z M77.706,364.008v0.966h2.372v-0.966H77.706z M119.6,335.379v-10.492
		c-0.004-2.676-2.232-4.856-4.963-4.861H85.363c-2.732,0.005-4.956,2.186-4.962,4.863v10.49h1.449
		c1.703,0.002,3.092,1.36,3.092,3.031v5.046h30.118v-5.044c0-0.562,0.165-1.111,0.468-1.594c0.569-0.897,1.549-1.438,2.623-1.439
		H119.6L119.6,335.379z M119.924,364.975h2.372v-0.965h-2.372V364.975z M124.065,337.494h-5.914c-0.06,0-0.131,0.013-0.226,0.033
		c-0.274,0.068-0.509,0.266-0.626,0.516c-0.005,0.018-0.012,0.031-0.016,0.051c-0.047,0.123-0.067,0.225-0.067,0.32v22.563
		c0,0.053,0.005,0.104,0.022,0.168c0.092,0.439,0.478,0.746,0.915,0.746h5.913c0.504,0,0.931-0.418,0.934-0.914V338.41
		C124.998,337.906,124.579,337.496,124.065,337.494z"/>
	<text transform="matrix(1.0205 0 0 1 92.9805 340.207)" fill="#FFFFFF" font-family="'Arial-BoldMT'" font-size="23.5834">9</text>
</g>
<g id="seat-icon-10">
	<path fill="#888888" d="M184.941,345.57v14.718h30.12V345.57H184.941L184.941,345.57z M182.373,337.657
		c-0.158-0.106-0.34-0.163-0.526-0.164h-5.91c-0.517,0.003-0.936,0.413-0.937,0.919v22.564c0.001,0.501,0.42,0.914,0.937,0.916
		h5.913c0.433-0.002,0.817-0.309,0.911-0.728c0.013-0.067,0.016-0.117,0.017-0.166l0.001-0.055l0.003-0.022v-22.51
		C182.782,338.115,182.629,337.832,182.373,337.657z M177.706,364.008v0.966h2.372v-0.966H177.706z M219.599,335.379v-10.492
		c-0.004-2.676-2.23-4.856-4.963-4.861h-29.272c-2.732,0.005-4.956,2.186-4.961,4.863v10.49h1.449
		c1.703,0.002,3.091,1.36,3.091,3.031v5.046h30.119v-5.044c0-0.563,0.165-1.111,0.469-1.594c0.567-0.896,1.549-1.438,2.622-1.439
		H219.599L219.599,335.379z M219.924,364.975h2.371v-0.965h-2.371V364.975z M224.064,337.494h-5.913
		c-0.061,0-0.132,0.013-0.226,0.033c-0.273,0.068-0.509,0.266-0.627,0.516c-0.006,0.019-0.012,0.031-0.016,0.051
		c-0.047,0.123-0.066,0.225-0.066,0.32v22.563c0,0.053,0.004,0.104,0.021,0.168c0.092,0.439,0.479,0.746,0.915,0.746h5.913
		c0.503,0,0.93-0.418,0.934-0.914V338.41C224.998,337.906,224.579,337.496,224.064,337.494z"/>
	<text transform="matrix(1.0204 0 0 1 185.9805 340.207)" fill="#FFFFFF" font-family="'Arial-BoldMT'" font-size="23.5834">10</text>
</g>
<g id="seat-icon-11">
	<path fill="#888888" d="M284.941,345.57v14.718h30.121V345.57H284.941L284.941,345.57z M282.373,337.657
		c-0.158-0.106-0.34-0.163-0.525-0.164h-5.912c-0.516,0.003-0.934,0.413-0.936,0.919v22.564c0.002,0.501,0.42,0.914,0.936,0.916
		h5.914c0.432-0.002,0.818-0.309,0.91-0.728c0.014-0.067,0.016-0.117,0.018-0.166v-0.055l0.004-0.022v-22.51
		C282.783,338.115,282.631,337.832,282.373,337.657z M277.705,364.008v0.966h2.373v-0.966H277.705z M319.6,335.379v-10.492
		c-0.004-2.676-2.23-4.856-4.963-4.861h-29.273c-2.73,0.005-4.955,2.186-4.961,4.863v10.49h1.449c1.701,0.002,3.09,1.36,3.09,3.031
		v5.046h30.121v-5.044c0-0.563,0.164-1.111,0.467-1.594c0.568-0.896,1.549-1.438,2.623-1.439H319.6L319.6,335.379z M319.924,364.975
		h2.373v-0.965h-2.373V364.975z M324.064,337.494h-5.912c-0.061,0-0.131,0.013-0.225,0.033c-0.275,0.068-0.51,0.266-0.627,0.516
		c-0.006,0.019-0.012,0.031-0.016,0.051c-0.047,0.123-0.066,0.225-0.066,0.32v22.563c0,0.053,0.004,0.104,0.021,0.168
		c0.092,0.439,0.477,0.746,0.914,0.746h5.912c0.504,0,0.93-0.418,0.934-0.914V338.41
		C324.998,337.906,324.58,337.496,324.064,337.494z"/>
	<text transform="matrix(1.0204 0 0 1 287.9805 340.207)" fill="#FFFFFF" font-family="'Arial-BoldMT'" font-size="23.5834">11</text>
</g>
<g id="seat-icon-12">
	<path fill="#888888" d="M34.941,421.5v14.718h30.119V421.5H34.941L34.941,421.5z M32.373,413.587
		c-0.158-0.106-0.34-0.163-0.526-0.165h-5.911c-0.516,0.004-0.935,0.414-0.936,0.92v22.564c0.001,0.501,0.42,0.914,0.936,0.916
		h5.914c0.432-0.002,0.817-0.309,0.911-0.728c0.013-0.067,0.016-0.117,0.017-0.166l0.001-0.055l0.003-0.022v-22.51
		C32.782,414.045,32.629,413.762,32.373,413.587z M27.706,439.938v0.966h2.372v-0.966H27.706z M69.6,411.309v-10.492
		c-0.004-2.676-2.232-4.856-4.963-4.861H35.363c-2.732,0.005-4.956,2.186-4.962,4.863v10.49h1.449
		c1.703,0.002,3.092,1.36,3.092,3.031v5.046h30.118v-5.044c0-0.562,0.165-1.111,0.468-1.594c0.569-0.897,1.549-1.438,2.623-1.439
		H69.6L69.6,411.309z M69.924,440.904h2.372v-0.965h-2.372V440.904z M74.065,413.424h-5.914c-0.06,0-0.131,0.013-0.226,0.033
		c-0.274,0.068-0.509,0.266-0.626,0.516c-0.005,0.018-0.012,0.031-0.016,0.051c-0.047,0.123-0.067,0.225-0.067,0.32v22.563
		c0,0.053,0.005,0.104,0.022,0.168c0.092,0.439,0.478,0.746,0.915,0.746h5.913c0.504,0,0.931-0.418,0.934-0.914V414.34
		C74.998,413.836,74.579,413.426,74.065,413.424z"/>
	<text transform="matrix(1.0205 0 0 1 36.9805 416.1367)" fill="#FFFFFF" font-family="'Arial-BoldMT'" font-size="23.5834">12</text>
</g>
<g id="seat-icon-13">
	<path fill="#888888" d="M134.941,421.5v14.718h30.12V421.5H134.941L134.941,421.5z M132.373,413.587
		c-0.158-0.106-0.34-0.163-0.526-0.164h-5.91c-0.517,0.003-0.936,0.413-0.937,0.919v22.564c0.001,0.501,0.42,0.914,0.937,0.916
		h5.913c0.433-0.002,0.817-0.309,0.911-0.728c0.013-0.067,0.016-0.117,0.017-0.166l0.001-0.055l0.003-0.022v-22.51
		C132.782,414.045,132.629,413.762,132.373,413.587z M127.706,439.938v0.966h2.372v-0.966H127.706z M169.599,411.309v-10.492
		c-0.004-2.676-2.23-4.856-4.963-4.861h-29.272c-2.732,0.005-4.956,2.186-4.961,4.863v10.49h1.449
		c1.703,0.002,3.091,1.36,3.091,3.031v5.046h30.119v-5.044c0-0.563,0.165-1.111,0.468-1.594c0.568-0.896,1.549-1.438,2.623-1.439
		H169.599L169.599,411.309z M169.924,440.904h2.372v-0.965h-2.372V440.904z M174.064,413.424h-5.913
		c-0.061,0-0.131,0.013-0.225,0.033c-0.274,0.068-0.509,0.266-0.627,0.516c-0.006,0.019-0.012,0.031-0.016,0.051
		c-0.047,0.123-0.066,0.225-0.066,0.32v22.563c0,0.053,0.004,0.104,0.021,0.168c0.092,0.439,0.478,0.746,0.915,0.746h5.913
		c0.503,0,0.93-0.418,0.934-0.914V414.34C174.998,413.836,174.579,413.426,174.064,413.424z"/>
	<text transform="matrix(1.0204 0 0 1 136.9805 416.1367)" fill="#FFFFFF" font-family="'Arial-BoldMT'" font-size="23.5834">13</text>
</g>
<g id="seat-icon-14">
	<path fill="#888888" d="M234.941,421.5v14.718h30.121V421.5H234.941L234.941,421.5z M232.373,413.587
		c-0.158-0.106-0.34-0.163-0.525-0.164h-5.912c-0.516,0.003-0.934,0.413-0.936,0.919v22.564c0.002,0.501,0.42,0.914,0.936,0.916
		h5.914c0.432-0.002,0.818-0.309,0.91-0.728c0.014-0.067,0.016-0.117,0.018-0.166v-0.055l0.004-0.022v-22.51
		C232.783,414.045,232.631,413.762,232.373,413.587z M227.705,439.938v0.966h2.373v-0.966H227.705z M269.6,411.309v-10.492
		c-0.004-2.676-2.23-4.856-4.963-4.861h-29.273c-2.73,0.005-4.955,2.186-4.961,4.863v10.49h1.449c1.701,0.002,3.09,1.36,3.09,3.031
		v5.046h30.121v-5.044c0-0.563,0.164-1.111,0.467-1.594c0.568-0.896,1.549-1.438,2.623-1.439H269.6L269.6,411.309z M269.924,440.904
		h2.373v-0.965h-2.373V440.904z M274.064,413.424h-5.912c-0.061,0-0.131,0.013-0.225,0.033c-0.275,0.068-0.51,0.266-0.627,0.516
		c-0.006,0.019-0.012,0.031-0.016,0.051c-0.047,0.123-0.066,0.225-0.066,0.32v22.563c0,0.053,0.004,0.104,0.021,0.168
		c0.092,0.439,0.477,0.746,0.914,0.746h5.912c0.504,0,0.93-0.418,0.934-0.914V414.34
		C274.998,413.836,274.58,413.426,274.064,413.424z"/>
	<text transform="matrix(1.0204 0 0 1 236.9805 416.1367)" fill="#FFFFFF" font-family="'Arial-BoldMT'" font-size="23.5834">14</text>
</g>
<g id="seat-icon-15">
	<path fill="#888888" d="M334.941,421.5v14.718h30.119V421.5H334.941L334.941,421.5z M332.372,413.587
		c-0.157-0.106-0.339-0.163-0.525-0.164h-5.91c-0.518,0.003-0.937,0.413-0.937,0.919v22.564c0,0.501,0.419,0.914,0.937,0.916h5.912
		c0.433-0.002,0.816-0.309,0.911-0.728c0.014-0.067,0.016-0.117,0.018-0.166v-0.055l0.004-0.022v-22.51
		C332.781,414.045,332.628,413.762,332.372,413.587z M327.705,439.938v0.966h2.371v-0.966H327.705z M369.599,411.309v-10.492
		c-0.004-2.676-2.23-4.856-4.963-4.861h-29.273c-2.732,0.005-4.955,2.186-4.961,4.863v10.49h1.449
		c1.702,0.002,3.091,1.36,3.091,3.031v5.046h30.119v-5.044c0-0.563,0.165-1.111,0.468-1.594c0.568-0.896,1.55-1.438,2.623-1.439
		H369.599L369.599,411.309z M369.924,440.904h2.371v-0.965h-2.371V440.904z M374.063,413.424h-5.912
		c-0.061,0-0.132,0.013-0.226,0.033c-0.274,0.068-0.509,0.266-0.627,0.516c-0.006,0.019-0.012,0.031-0.016,0.051
		c-0.047,0.123-0.066,0.225-0.066,0.32v22.563c0,0.053,0.004,0.104,0.021,0.168c0.093,0.439,0.479,0.746,0.915,0.746h5.912
		c0.504,0,0.931-0.418,0.935-0.914V414.34C374.998,413.836,374.579,413.426,374.063,413.424z"/>
	<text transform="matrix(1.0205 0 0 1 335.9805 416.1367)" fill="#FFFFFF" font-family="'Arial-BoldMT'" font-size="23.5834">15</text>
</g>
<g id="seat-icon-5">
	<path fill="#888888" d="M65.059,224.374v-14.718H34.939v14.718H65.059L65.059,224.374z M67.627,232.287
		c0.158,0.106,0.34,0.163,0.526,0.165h5.911c0.516-0.004,0.935-0.414,0.936-0.92v-22.564c-0.001-0.501-0.42-0.914-0.936-0.916H68.15
		c-0.432,0.002-0.817,0.309-0.911,0.728c-0.013,0.067-0.016,0.117-0.017,0.166L67.222,209l-0.003,0.022v22.51
		C67.218,231.829,67.371,232.112,67.627,232.287z M72.294,205.937v-0.966h-2.372v0.966H72.294z M30.4,234.565v10.492
		c0.004,2.676,2.232,4.856,4.963,4.861h29.273c2.732-0.005,4.956-2.186,4.962-4.863v-10.49h-1.449
		c-1.703-0.002-3.092-1.36-3.092-3.031v-5.046H34.939v5.044c0,0.562-0.165,1.111-0.468,1.594c-0.569,0.897-1.549,1.438-2.623,1.439
		H30.4L30.4,234.565z M30.076,204.97h-2.372v0.965h2.372V204.97z M25.935,232.45h5.914c0.06,0,0.131-0.013,0.226-0.033
		c0.274-0.068,0.509-0.266,0.626-0.516c0.005-0.018,0.012-0.031,0.016-0.051c0.047-0.123,0.067-0.225,0.067-0.32v-22.563
		c0-0.053-0.005-0.104-0.022-0.168c-0.092-0.439-0.478-0.746-0.915-0.746h-5.913c-0.504,0-0.931,0.418-0.934,0.914v22.566
		C25.002,232.038,25.421,232.448,25.935,232.45z"/>
	<text transform="matrix(1.0205 0 0 1 42.9805 246.1514)" fill="#FFFFFF" font-family="'Arial-BoldMT'" font-size="23.5834">5</text>
</g>
<g id="seat-icon-8">
	<path fill="#888888" d="M365.059,224.374v-14.718h-30.119v14.718H365.059L365.059,224.374z M367.627,232.287
		c0.158,0.106,0.34,0.163,0.526,0.165h5.911c0.516-0.004,0.935-0.414,0.936-0.92v-22.564c-0.001-0.501-0.42-0.914-0.936-0.916
		h-5.914c-0.432,0.002-0.816,0.309-0.91,0.728c-0.014,0.067-0.017,0.117-0.018,0.166L367.222,209l-0.003,0.022v22.51
		C367.218,231.829,367.371,232.112,367.627,232.287z M372.295,205.937v-0.966h-2.372v0.966H372.295z M330.4,234.565v10.492
		c0.004,2.676,2.232,4.856,4.963,4.861h29.273c2.732-0.005,4.956-2.186,4.962-4.863v-10.49h-1.449
		c-1.703-0.002-3.092-1.36-3.092-3.031v-5.046h-30.118v5.044c0,0.562-0.164,1.111-0.469,1.594c-0.568,0.897-1.549,1.438-2.622,1.439
		H330.4L330.4,234.565z M330.076,204.97h-2.371v0.965h2.371V204.97z M325.936,232.45h5.913c0.06,0,0.132-0.013,0.226-0.033
		c0.273-0.068,0.509-0.266,0.627-0.516c0.004-0.018,0.012-0.031,0.016-0.051c0.047-0.123,0.066-0.225,0.066-0.32v-22.563
		c0-0.053-0.005-0.104-0.021-0.168c-0.092-0.439-0.479-0.746-0.915-0.746h-5.913c-0.504,0-0.931,0.418-0.934,0.914v22.566
		C325.002,232.038,325.421,232.448,325.936,232.45z"/>
	<text transform="matrix(1.0205 0 0 1 342.9805 246.1514)" fill="#FFFFFF" font-family="'Arial-BoldMT'" font-size="23.5834">8</text>
</g>
<g id="seat-icon-7">
	<path fill="#888888" d="M265.059,224.374v-14.718h-30.119v14.718H265.059L265.059,224.374z M267.627,232.287
		c0.158,0.106,0.34,0.163,0.526,0.165h5.911c0.516-0.004,0.935-0.414,0.936-0.92v-22.564c-0.001-0.501-0.42-0.914-0.936-0.916
		h-5.914c-0.432,0.002-0.816,0.309-0.91,0.728c-0.014,0.067-0.017,0.117-0.018,0.166L267.222,209l-0.003,0.022v22.51
		C267.218,231.829,267.371,232.112,267.627,232.287z M272.295,205.937v-0.966h-2.372v0.966H272.295z M230.4,234.565v10.492
		c0.004,2.676,2.232,4.856,4.963,4.861h29.273c2.732-0.005,4.956-2.186,4.962-4.863v-10.49h-1.449
		c-1.703-0.002-3.092-1.36-3.092-3.031v-5.046h-30.118v5.044c0,0.562-0.164,1.111-0.469,1.594c-0.568,0.897-1.549,1.438-2.622,1.439
		H230.4L230.4,234.565z M230.076,204.97h-2.371v0.965h2.371V204.97z M225.936,232.45h5.913c0.06,0,0.132-0.013,0.226-0.033
		c0.273-0.068,0.509-0.266,0.627-0.516c0.004-0.018,0.012-0.031,0.016-0.051c0.047-0.123,0.066-0.225,0.066-0.32v-22.563
		c0-0.053-0.005-0.104-0.021-0.168c-0.092-0.439-0.479-0.746-0.915-0.746h-5.913c-0.504,0-0.931,0.418-0.934,0.914v22.566
		C225.002,232.038,225.421,232.448,225.936,232.45z"/>
	<text transform="matrix(1.0205 0 0 1 242.9805 246.1514)" fill="#FFFFFF" font-family="'Arial-BoldMT'" font-size="23.5834">7</text>
</g>
<g id="seat-icon-6">
	<path fill="#888888" d="M165.059,224.374v-14.718h-30.119v14.718H165.059L165.059,224.374z M167.627,232.287
		c0.158,0.106,0.34,0.163,0.526,0.165h5.911c0.516-0.004,0.935-0.414,0.936-0.92v-22.564c-0.001-0.501-0.42-0.914-0.936-0.916
		h-5.914c-0.432,0.002-0.816,0.309-0.91,0.728c-0.014,0.067-0.017,0.117-0.018,0.166L167.222,209l-0.003,0.022v22.51
		C167.218,231.829,167.371,232.112,167.627,232.287z M172.295,205.937v-0.966h-2.372v0.966H172.295z M130.4,234.565v10.492
		c0.004,2.676,2.232,4.856,4.963,4.861h29.273c2.732-0.005,4.956-2.186,4.962-4.863v-10.49h-1.449
		c-1.703-0.002-3.092-1.36-3.092-3.031v-5.046h-30.118v5.044c0,0.562-0.165,1.111-0.468,1.594c-0.569,0.897-1.549,1.438-2.623,1.439
		H130.4L130.4,234.565z M130.076,204.97h-2.372v0.965h2.372V204.97z M125.935,232.45h5.914c0.06,0,0.131-0.013,0.226-0.033
		c0.274-0.068,0.509-0.266,0.626-0.516c0.005-0.018,0.012-0.031,0.016-0.051c0.047-0.123,0.067-0.225,0.067-0.32v-22.563
		c0-0.053-0.005-0.104-0.022-0.168c-0.092-0.439-0.478-0.746-0.915-0.746h-5.913c-0.504,0-0.931,0.418-0.934,0.914v22.566
		C125.002,232.038,125.421,232.448,125.935,232.45z"/>
	<text transform="matrix(1.0205 0 0 1 142.9805 246.1514)" fill="#FFFFFF" font-family="'Arial-BoldMT'" font-size="23.5834">6</text>
</g>
</svg>
